<?xml version="1.0" encoding="UTF-8" standalone="no"?>
<svg
   version="1.1"
   id="Layer_1"
   x="0px"
   y="0px"
   width="100%"
   viewBox="0 0 1024 1024"
   enable-background="new 0 0 1024 1024"
   xml:space="preserve"
   sodipodi:docname="amigo_speech_balloon.svg"
   inkscape:version="1.4.3 (0d15f75, 2025-12-25)"
   xmlns:inkscape="http://www.inkscape.org/namespaces/inkscape"
   xmlns:sodipodi="http://sodipodi.sourceforge.net/DTD/sodipodi-0.dtd"
   xmlns="http://www.w3.org/2000/svg"
   xmlns:svg="http://www.w3.org/2000/svg"><defs
   id="defs219" /><sodipodi:namedview
   id="namedview219"
   pagecolor="#ffffff"
   bordercolor="#000000"
   borderopacity="0.25"
   inkscape:showpageshadow="2"
   inkscape:pageopacity="0.0"
   inkscape:pagecheckerboard="0"
   inkscape:deskcolor="#d1d1d1"
   inkscape:zoom="0.48347861"
   inkscape:cx="488.12914"
   inkscape:cy="584.30713"
   inkscape:window-width="1083"
   inkscape:window-height="250"
   inkscape:window-x="0"
   inkscape:window-y="33"
   inkscape:window-maximized="0"
   inkscape:current-layer="Layer_1" />
<path
   fill="None"
   opacity="1"
   stroke="none"
   d="m 1025,346 c 210703.35,-144103.7 -156481.18,-33383.379 0,0 z M 905.05725,248.92828 -6206.9094,3586.4074 Z"
   id="path1" />
<path
   fill="#000000"
   opacity="1"
   stroke="none"
   d="m 930.05347,695.19525 22.92049,-3.82968 -22.92055,3.82944 M 264.64282,912.15649 3286.8298,-5208.7805 Z"
   id="path2" />
<path
   fill="#000000"
   opacity="1"
   stroke="none"
   d="m 932.37329,691.01129 c 0.10572,-0.34676 0.10572,-0.34676 0,0 z"
   id="path3" />
<path
   fill="#000000"
   opacity="1"
   stroke="none"
   d="m 324.99164,912.37476 c -0.60419,-0.16748 -0.60419,-0.16748 0,0 z"
   id="path4" />
<path
   fill="#000000"
   opacity="1"
   stroke="none"
   d="m 102.62803,280.97967 c 0.21583,-0.58966 0.21583,-0.58966 0,0 z"
   id="path5" />
<path
   fill="#000000"
   opacity="1"
   stroke="none"
   d="m 164.98347,943.37824 c 0.30056,-0.0611 0.30056,-0.0611 0,0 z"
   id="path6" />
<path
   fill="#000000"
   opacity="1"
   stroke="none"
   d="m 972.93811,447.53595 c -0.0553,-0.2848 -0.0553,-0.2848 0,0 z"
   id="path7" />
<path
   fill="#000000"
   opacity="1"
   stroke="none"
   d="m 51.06057,529.48261 c 0.05035,0.29126 0.05035,0.29126 0,0 z"
   id="path8" />
<path
   fill="#000000"
   opacity="1"
   stroke="none"
   d="m 467.52753,39.061001 c -0.28731,0.05564 -0.28731,0.05564 0,0 z"
   id="path9" />
<path
   fill="#000000"
   opacity="1"
   stroke="none"
   d="m 707.01025,77.626373 c -0.27935,-0.09798 -0.27935,-0.09798 0,0 z"
   id="path10" />
<path
   fill="#000000"
   opacity="1"
   stroke="none"
   d="m 575.46777,947.9389 c 0.26057,-0.055 0.26057,-0.055 0,0 z"
   id="path11" />
<path
   fill="#000000"
   opacity="1"
   stroke="none"
   d="m 166.90164,800.4632 c -0.0332,0.24082 -0.0332,0.24082 0,0 z"
   id="path12" />
<path
   fill="#000000"
   opacity="1"
   stroke="none"
   d="m 50.482765,466.16248 c -0.08046,-0.80152 -0.08046,-0.80152 0,0 z"
   id="path13" />
<path
   fill="#000000"
   opacity="1"
   stroke="none"
   d="m 545.83783,37.482079 c 0.79208,-0.07476 0.79208,-0.07476 0,0 z"
   id="path14" />
<path
   fill="#000000"
   opacity="1"
   stroke="none"
   d="m 700.39697,913.93542 c 0.44111,-0.22855 0.44111,-0.22855 0,0 z"
   id="path15" />
<path
   fill="#000000"
   opacity="1"
   stroke="none"
   d="m 313.60602,81.06366 c -0.33266,0.178161 -0.33266,0.178161 0,0 z"
   id="path16" />
<path
   fill="#000000"
   opacity="1"
   stroke="none"
   d="m 90.063309,682.39404 c 0.192432,0.35914 0.192432,0.35914 0,0 z"
   id="path17" />
<path
   fill="#000000"
   opacity="1"
   stroke="none"
   d="m 731.02216,89.627457 c -0.60033,-0.308824 -0.60033,-0.308824 0,0 z"
   id="path18" />
<path
   fill="#000000"
   opacity="1"
   stroke="none"
   d="m 508.16223,951.51758 c 0.32482,-0.0131 0.32482,-0.0131 0,0 z"
   id="path19" />
<path
   fill="#000000"
   opacity="1"
   stroke="none"
   d="m 553.47571,949.93884 c 0.18942,-0.47333 0.18942,-0.47333 0,0 z"
   id="path20" />
<path
   fill="#000000"
   opacity="1"
   stroke="none"
   d="m 925.08398,284.55173 c 0.12625,-0.42238 0.12625,-0.42238 0,0 z"
   id="path21" />
<path
   fill="#000000"
   opacity="1"
   stroke="none"
   d="m 534.48413,950.93945 c 0.33577,0.21426 0.33577,0.21426 0,0 z"
   id="path22" />
<path
   fill="#000000"
   opacity="1"
   stroke="none"
   d="m 483.51904,38.060738 c -0.36949,-0.09115 -0.36949,-0.09115 0,0 z"
   id="path23" />
<path
   fill="#000000"
   opacity="1"
   stroke="none"
   d="m 562.8418,38.484383 c -0.22984,-4e-6 -0.22984,-4e-6 0,0 z"
   id="path24" />
<path
   fill="#000000"
   opacity="1"
   stroke="none"
   d="m 51.485893,451.15713 c 5e-6,0.21193 5e-6,0.21193 0,0 z"
   id="path25" />
<path
   fill="#000000"
   opacity="1"
   stroke="none"
   d="m 920.37292,714.02417 c 0.0984,-0.19758 0.0984,-0.19758 0,0 z"
   id="path26" />
<path
   fill="#000000"
   opacity="1"
   stroke="none"
   d="m 973.93909,459.53583 c -0.0228,-0.19487 -0.0228,-0.19487 0,0 z"
   id="path27" />
<path
   fill="#000000"
   opacity="1"
   stroke="none"
   d="m 105.91467,713.44537 c 0.10497,0.17339 0.10497,0.17339 0,0 z"
   id="path28" />
<path
   fill="#000000"
   opacity="1"
   stroke="none"
   d="m 151.06165,922.43384 c 0.0609,0.19447 0.0609,0.19447 0,0 z"
   id="path29" />
<path
   fill="#000000"
   opacity="1"
   stroke="none"
   d="m 744.0246,96.630814 c -0.14427,-0.07147 -0.14427,-0.07147 0,0 z"
   id="path30" />
<path
   fill="#000000"
   opacity="1"
   stroke="none"
   d="m 108.63071,269.97491 c -0.0715,0.14426 -0.0715,0.14426 0,0 z"
   id="path31" />
<path
   fill="#000000"
   opacity="1"
   stroke="none"
   d="m 915.36981,723.02625 c 0.0715,-0.14432 0.0715,-0.14432 0,0 z"
   id="path32" />
<path
   fill="#000000"
   opacity="1"
   stroke="none"
   d="m 284.56024,95.914429 c -0.13267,0.08467 -0.13267,0.08467 0,0 z"
   id="path33" />
<path
   fill="#000000"
   opacity="1"
   stroke="none"
   d="m 746.42895,891.08612 c 0.36504,-0.25513 0.36504,-0.25513 0,0 z"
   id="path34" />
<path
   fill="#000000"
   opacity="1"
   stroke="none"
   d="m 753.42755,887.08679 c 0.36217,-0.25338 0.36217,-0.25338 0,0 z"
   id="path35" />
<path
   fill="#000000"
   opacity="1"
   stroke="none"
   d="m 751.03046,100.63551 c -0.41047,-0.20244 -0.41047,-0.20244 0,0 z"
   id="path36" />
<path
   fill="#000000"
   opacity="1"
   stroke="none"
   d="m 758.03003,104.63576 c -0.41044,-0.20254 -0.41044,-0.20254 0,0 z"
   id="path37" />
<path
   fill="#000000"
   opacity="1"
   stroke="none"
   d="m 270.57233,103.91341 c -0.36215,0.25343 -0.36215,0.25343 0,0 z"
   id="path38" />
<path
   fill="#000000"
   opacity="1"
   stroke="none"
   d="m 112.60268,263.00531 c -0.19993,0.4076 -0.19993,0.4076 0,0 z"
   id="path39" />
<path
   fill="#000000"
   opacity="1"
   stroke="none"
   d="m 110.91386,722.42883 c 0.25545,0.36517 0.25545,0.36517 0,0 z"
   id="path40" />
<path
   fill="#000000"
   opacity="1"
   stroke="none"
   d="m 914.08563,263.57135 c -0.25529,-0.36524 -0.25529,-0.36524 0,0 z"
   id="path41" />
<path
   fill="#000000"
   opacity="1"
   stroke="none"
   d="m 115.60239,258.00525 c -0.19982,0.40758 -0.19982,0.40758 0,0 z"
   id="path42" />
<path
   fill="#000000"
   opacity="1"
   stroke="none"
   d="m 120.61646,249.99287 c -0.11767,0.24184 -0.11767,0.24184 0,0 z"
   id="path43" />
<path
   fill="#000000"
   opacity="1"
   stroke="none"
   d="m 817.37744,840.10144 c 0.20355,-0.1731 0.20355,-0.1731 0,0 z"
   id="path44" />
<path
   fill="#000000"
   opacity="1"
   stroke="none"
   d="m 777.00726,116.61655 c -0.24177,-0.11774 -0.24177,-0.11774 0,0 z"
   id="path45" />
<path
   fill="#000000"
   opacity="1"
   stroke="none"
   d="m 774.00745,114.61608 c -0.24178,-0.11766 -0.24178,-0.11766 0,0 z"
   id="path46" />
<path
   fill="#000000"
   opacity="1"
   stroke="none"
   d="m 257.59051,111.91267 c -0.20091,0.1718 -0.20091,0.1718 0,0 z"
   id="path47" />
<path
   fill="#000000"
   opacity="1"
   stroke="none"
   d="m 117.65005,254.9617 c -0.12039,0.24407 -0.12039,0.24407 0,0 z"
   id="path48" />
<path
   fill="#000000"
   opacity="1"
   stroke="none"
   d="m 910.08643,256.59521 c -0.16981,-0.19823 -0.16981,-0.19823 0,0 z"
   id="path49" />
<path
   fill="#000000"
   opacity="1"
   stroke="none"
   d="m 908.08704,253.59094 c -0.17152,-0.20065 -0.17152,-0.20065 0,0 z"
   id="path50" />
<path
   fill="#000000"
   opacity="1"
   stroke="none"
   d="m 904.35046,741.03992 c 0.12031,-0.24425 0.12031,-0.24425 0,0 z"
   id="path51" />
<path
   fill="#000000"
   opacity="1"
   stroke="none"
   d="m 771.00714,112.61635 c -0.24176,-0.11767 -0.24176,-0.11767 0,0 z"
   id="path52" />
<path
   fill="#000000"
   opacity="1"
   stroke="none"
   d="m 260.59445,109.91273 c -0.19814,0.16997 -0.19814,0.16997 0,0 z"
   id="path53" />
<path
   fill="#000000"
   opacity="1"
   stroke="none"
   d="m 768.0072,110.61627 c -0.24212,-0.11744 -0.24212,-0.11744 0,0 z"
   id="path54" />
<path
   fill="#000000"
   opacity="1"
   stroke="none"
   d="m 265.59119,106.91336 c -0.20099,0.17174 -0.20099,0.17174 0,0 z"
   id="path55" />
<path
   fill="#000000"
   opacity="1"
   stroke="none"
   d="m 763.04163,107.64891 c -0.24457,-0.12013 -0.24457,-0.12013 0,0 z"
   id="path56" />
<path
   fill="#000000"
   opacity="1"
   stroke="none"
   d="m 886.35297,767.03918 c 0.12267,-0.24597 0.12267,-0.24597 0,0 z"
   id="path57" />
<path
   fill="#000000"
   opacity="1"
   stroke="none"
   d="m 275.59048,100.9127 c -0.20097,0.17187 -0.20097,0.17187 0,0 z"
   id="path58" />
<path
   fill="#000000"
   opacity="1"
   stroke="none"
   d="m 780.00745,118.61634 c -0.2417,-0.11778 -0.2417,-0.11778 0,0 z"
   id="path59" />
<path
   fill="#000000"
   opacity="1"
   stroke="none"
   d="m 889.35327,763.03955 c 0.12265,-0.24618 0.12265,-0.24618 0,0 z"
   id="path60" />
<path
   fill="#000000"
   opacity="1"
   stroke="none"
   d="m 133.89517,758.37866 c 0.17323,0.20315 0.17323,0.20315 0,0 z"
   id="path61" />
<path
   fill="#000000"
   opacity="1"
   stroke="none"
   d="m 894.35364,756.04089 c 0.12265,-0.24628 0.12265,-0.24628 0,0 z"
   id="path62" />
<path
   fill="#000000"
   opacity="1"
   stroke="none"
   d="m 912.35071,728.04047 c 0.12017,-0.24447 0.12017,-0.24447 0,0 z"
   id="path63" />
<path
   fill="#000000"
   opacity="1"
   stroke="none"
   d="m 114.91374,729.40845 c 0.17194,0.20099 0.17194,0.20099 0,0 z"
   id="path64" />
<path
   fill="#000000"
   opacity="1"
   stroke="none"
   d="m 909.35059,733.04022 c 0.1202,-0.24435 0.1202,-0.24435 0,0 z"
   id="path65" />
<path
   fill="#000000"
   opacity="1"
   stroke="none"
   d="m 117.91376,734.40466 c 0.16989,0.19805 0.16989,0.19805 0,0 z"
   id="path66" />
<path
   fill="#000000"
   opacity="1"
   stroke="none"
   d="m 121.91362,740.40845 c 0.1717,0.20102 0.1717,0.20102 0,0 z"
   id="path67" />
<path
   fill="#000000"
   opacity="1"
   stroke="none"
   d="m 906.38415,738.00745 c 0.11753,-0.24193 0.11753,-0.24193 0,0 z"
   id="path68" />
<path
   fill="#000000"
   opacity="1"
   stroke="none"
   d="m 119.9135,737.40466 c 0.1698,0.1982 0.1698,0.1982 0,0 z"
   id="path69" />
<path
   fill="#000000"
   opacity="1"
   stroke="none"
   d="m 146.64728,212.96164 c -0.12243,0.24572 -0.12243,0.24572 0,0 z"
   id="path70" />
<path
   fill="#000000"
   opacity="1"
   stroke="none"
   d="m 775.40979,873.08765 c 0.20087,-0.17203 0.20087,-0.17203 0,0 z"
   id="path71" />
<path
   fill="#000000"
   opacity="1"
   stroke="none"
   d="m 895.08594,233.59576 c -0.16968,-0.19826 -0.16968,-0.19826 0,0 z"
   id="path72" />
<path
   fill="#000000"
   opacity="1"
   stroke="none"
   d="m 134.64702,228.96089 c -0.12262,0.24611 -0.12262,0.24611 0,0 z"
   id="path73" />
<path
   fill="#000000"
   opacity="1"
   stroke="none"
   d="m 893.08594,230.59174 c -0.1719,-0.20091 -0.1719,-0.20091 0,0 z"
   id="path74" />
<path
   fill="#000000"
   opacity="1"
   stroke="none"
   d="m 772.40515,875.08704 c 0.19827,-0.16978 0.19827,-0.16978 0,0 z"
   id="path75" />
<path
   fill="#000000"
   opacity="1"
   stroke="none"
   d="m 890.10474,226.62109 c -0.17329,-0.20321 -0.17329,-0.20321 0,0 z"
   id="path76" />
<path
   fill="#000000"
   opacity="1"
   stroke="none"
   d="m 139.64726,221.96153 c -0.12251,0.24613 -0.12251,0.24613 0,0 z"
   id="path77" />
<path
   fill="#000000"
   opacity="1"
   stroke="none"
   d="m 887.10309,222.62198 c -0.17308,-0.20325 -0.17308,-0.20325 0,0 z"
   id="path78" />
<path
   fill="#000000"
   opacity="1"
   stroke="none"
   d="m 769.40491,877.08679 c 0.19818,-0.16987 0.19818,-0.16987 0,0 z"
   id="path79" />
<path
   fill="#000000"
   opacity="1"
   stroke="none"
   d="m 884.10437,218.62125 c -0.17331,-0.20331 -0.17331,-0.20331 0,0 z"
   id="path80" />
<path
   fill="#000000"
   opacity="1"
   stroke="none"
   d="m 122.64971,246.9606 c -0.12027,0.24422 -0.12027,0.24422 0,0 z"
   id="path81" />
<path
   fill="#000000"
   opacity="1"
   stroke="none"
   d="m 766.40515,879.08704 c 0.19813,-0.16991 0.19813,-0.16991 0,0 z"
   id="path82" />
<path
   fill="#000000"
   opacity="1"
   stroke="none"
   d="m 758.40869,884.08643 c 0.2009,-0.17167 0.2009,-0.17167 0,0 z"
   id="path83" />
<path
   fill="#000000"
   opacity="1"
   stroke="none"
   d="m 225.62186,134.89651 c -0.20343,0.17334 -0.20343,0.17334 0,0 z"
   id="path84" />
<path
   fill="#000000"
   opacity="1"
   stroke="none"
   d="m 802.039,134.64694 c -0.24596,-0.12261 -0.24596,-0.12261 0,0 z"
   id="path85" />
<path
   fill="#000000"
   opacity="1"
   stroke="none"
   d="m 794.03802,128.64737 c -0.24594,-0.12266 -0.24594,-0.12266 0,0 z"
   id="path86" />
<path
   fill="#000000"
   opacity="1"
   stroke="none"
   d="m 790.03937,125.64689 c -0.24613,-0.1226 -0.24613,-0.1226 0,0 z"
   id="path87" />
<path
   fill="#000000"
   opacity="1"
   stroke="none"
   d="m 242.62152,121.89626 c -0.20329,0.17309 -0.20329,0.17309 0,0 z"
   id="path88" />
<path
   fill="#000000"
   opacity="1"
   stroke="none"
   d="m 783.04065,120.64928 c -0.24435,-0.12019 -0.24435,-0.12019 0,0 z"
   id="path89" />
<path
   fill="#000000"
   opacity="1"
   stroke="none"
   d="m 246.5914,118.91371 c -0.20076,0.17197 -0.20076,0.17197 0,0 z"
   id="path90" />
<path
   fill="#000000"
   opacity="1"
   stroke="none"
   d="m 790.37884,862.10443 c 0.20331,-0.17339 0.20331,-0.17339 0,0 z"
   id="path91" />
<path
   fill="#000000"
   opacity="1"
   stroke="none"
   d="m 903.08624,245.59543 c -0.16961,-0.19826 -0.16961,-0.19826 0,0 z"
   id="path92" />
<path
   fill="#000000"
   opacity="1"
   stroke="none"
   d="m 905.08673,248.59492 c -0.16984,-0.19815 -0.16984,-0.19815 0,0 z"
   id="path93" />
<path
   fill="#000000"
   opacity="1"
   stroke="none"
   d="m 794.3794,859.10583 c 0.20308,-0.17342 0.20308,-0.17342 0,0 z"
   id="path94" />
<path
   fill="#000000"
   opacity="1"
   stroke="none"
   d="m 897.10413,236.62543 c -0.17099,-0.20057 -0.17099,-0.20057 0,0 z"
   id="path95" />
<path
   fill="#000000"
   opacity="1"
   stroke="none"
   d="m 782.37891,868.10474 c 0.20316,-0.17333 0.20316,-0.17333 0,0 z"
   id="path96" />
<path
   fill="#000000"
   opacity="1"
   stroke="none"
   d="m 786.37872,865.10431 c 0.20311,-0.1733 0.20311,-0.1733 0,0 z"
   id="path97" />
<path
   fill="#000000"
   opacity="1"
   stroke="none"
   d="m 901.08606,242.59195 c -0.17161,-0.20095 -0.17161,-0.20095 0,0 z"
   id="path98" />
<path
   fill="#000000"
   opacity="1"
   stroke="none"
   d="m 897.29736,752.07989 c 0.12634,-0.30432 0.12634,-0.30432 0,0 z"
   id="path99" />
<path
   fill="#000000"
   opacity="1"
   stroke="none"
   d="m 899.29687,749.07898 c 0.12655,-0.30396 0.12655,-0.30396 0,0 z"
   id="path100" />
<path
   fill="#000000"
   opacity="1"
   stroke="none"
   d="m 315.69922,80.09848 c -0.22302,0.25352 -0.22302,0.25352 0,0 z"
   id="path101" />
<path
   fill="#000000"
   opacity="1"
   stroke="none"
   d="m 128.09975,750.30078 c 0.25297,0.22286 0.25297,0.22286 0,0 z"
   id="path102" />
<path
   fill="#000000"
   opacity="1"
   stroke="none"
   d="m 132.09918,756.30078 c 0.25322,0.2229 0.25322,0.2229 0,0 z"
   id="path103" />
<path
   fill="#000000"
   opacity="1"
   stroke="none"
   d="m 733.07959,90.702995 c -0.30408,-0.126432 -0.30408,-0.126432 0,0 z"
   id="path104" />
<path
   fill="#000000"
   opacity="1"
   stroke="none"
   d="m 130.09921,753.30078 c 0.25321,0.22298 0.25321,0.22298 0,0 z"
   id="path105" />
<path
   fill="#000000"
   opacity="1"
   stroke="none"
   d="m 735.08014,91.702591 c -0.3045,-0.126363 -0.3045,-0.126363 0,0 z"
   id="path106" />
<path
   fill="#000000"
   opacity="1"
   stroke="none"
   d="m 745.29681,891.90338 c 0.21523,-0.25328 0.21523,-0.25328 0,0 z"
   id="path107" />
<path
   fill="#000000"
   opacity="1"
   stroke="none"
   d="m 126.09952,747.30078 c 0.25308,0.22282 0.25308,0.22282 0,0 z"
   id="path108" />
<path
   fill="#000000"
   opacity="1"
   stroke="none"
   d="m 154.09941,933.30078 c 0.25309,0.22302 0.25309,0.22302 0,0 z"
   id="path109" />
<path
   fill="#000000"
   opacity="1"
   stroke="none"
   d="m 901.29761,746.08032 c 0.12634,-0.30456 0.12634,-0.30456 0,0 z"
   id="path110" />
<path
   fill="#000000"
   opacity="1"
   stroke="none"
   d="m 162.92126,942.29675 c 0.3036,0.12647 0.3036,0.12647 0,0 z"
   id="path111" />
<path
   fill="#000000"
   opacity="1"
   stroke="none"
   d="m 124.09911,744.30078 c 0.25325,0.22302 0.25325,0.22302 0,0 z"
   id="path112" />
<path
   fill="#000000"
   opacity="1"
   stroke="none"
   d="m 810.30072,846.90185 c 0.22317,-0.25362 0.22317,-0.25362 0,0 z"
   id="path113" />
<path
   fill="#000000"
   opacity="1"
   stroke="none"
   d="m 903.29675,743.07904 c 0.12642,-0.30387 0.12642,-0.30387 0,0 z"
   id="path114" />
<path
   fill="#000000"
   opacity="1"
   stroke="none"
   d="m 805.30066,850.90143 c 0.2231,-0.25348 0.2231,-0.25348 0,0 z"
   id="path115" />
<path
   fill="#000000"
   opacity="1"
   stroke="none"
   d="m 800.30066,854.90088 c 0.22286,-0.25326 0.22286,-0.25326 0,0 z"
   id="path116" />
<path
   fill="#000000"
   opacity="1"
   stroke="none"
   d="m 276.70316,100.09575 c -0.21531,0.25358 -0.21531,0.25358 0,0 z"
   id="path117" />
<path
   fill="#000000"
   opacity="1"
   stroke="none"
   d="m 884.29736,770.07977 c 0.12638,-0.30438 0.12638,-0.30438 0,0 z"
   id="path118" />
<path
   fill="#000000"
   opacity="1"
   stroke="none"
   d="m 876.29687,780.07898 c 0.12651,-0.30398 0.12651,-0.30398 0,0 z"
   id="path119" />
<path
   fill="#000000"
   opacity="1"
   stroke="none"
   d="m 147.09982,776.30084 c 0.25293,0.2228 0.25293,0.2228 0,0 z"
   id="path120" />
<path
   fill="#000000"
   opacity="1"
   stroke="none"
   d="m 154.09833,785.30084 c 0.25352,0.22325 0.25352,0.22325 0,0 z"
   id="path121" />
<path
   fill="#000000"
   opacity="1"
   stroke="none"
   d="m 871.29687,786.07904 c 0.12649,-0.30393 0.12649,-0.30393 0,0 z"
   id="path122" />
<path
   fill="#000000"
   opacity="1"
   stroke="none"
   d="m 867.29773,791.08044 c 0.12626,-0.30469 0.12626,-0.30469 0,0 z"
   id="path123" />
<path
   fill="#000000"
   opacity="1"
   stroke="none"
   d="m 159.09817,791.30072 c 0.25362,0.2231 0.25362,0.2231 0,0 z"
   id="path124" />
<path
   fill="#000000"
   opacity="1"
   stroke="none"
   d="m 880.29785,775.08069 c 0.12624,-0.30479 0.12624,-0.30479 0,0 z"
   id="path125" />
<path
   fill="#000000"
   opacity="1"
   stroke="none"
   d="m 143.09891,771.30078 c 0.25333,0.2229 0.25333,0.2229 0,0 z"
   id="path126" />
<path
   fill="#000000"
   opacity="1"
   stroke="none"
   d="m 164.09981,797.30084 c 0.25297,0.22282 0.25297,0.22282 0,0 z"
   id="path127" />
<path
   fill="#000000"
   opacity="1"
   stroke="none"
   d="m 780.30072,869.89996 c 0.22276,-0.25287 0.22276,-0.25287 0,0 z"
   id="path128" />
<path
   fill="#000000"
   opacity="1"
   stroke="none"
   d="m 737.06274,92.689949 c -0.30123,-0.122129 -0.30123,-0.122129 0,0 z"
   id="path129" />
<path
   fill="#000000"
   opacity="1"
   stroke="none"
   d="m 861.29687,798.07904 c 0.12645,-0.30395 0.12645,-0.30395 0,0 z"
   id="path130" />
<path
   fill="#000000"
   opacity="1"
   stroke="none"
   d="m 285.70306,95.096375 c -0.21523,0.2534 -0.21523,0.2534 0,0 z"
   id="path131" />
<path
   fill="#000000"
   opacity="1"
   stroke="none"
   d="m 140.09932,767.30078 c 0.25314,0.22302 0.25314,0.22302 0,0 z"
   id="path132" />
<path
   fill="#000000"
   opacity="1"
   stroke="none"
   d="m 826.29968,832.9046 c 0.22363,-0.25458 0.22363,-0.25458 0,0 z"
   id="path133" />
<path
   fill="#000000"
   opacity="1"
   stroke="none"
   d="m 765.29675,879.90393 c 0.21529,-0.25346 0.21529,-0.25346 0,0 z"
   id="path134" />
<path
   fill="#000000"
   opacity="1"
   stroke="none"
   d="m 762.30072,881.90051 c 0.22296,-0.25305 0.22296,-0.25305 0,0 z"
   id="path135" />
<path
   fill="#000000"
   opacity="1"
   stroke="none"
   d="m 137.09975,763.3009 c 0.25297,0.22292 0.25297,0.22292 0,0 z"
   id="path136" />
<path
   fill="#000000"
   opacity="1"
   stroke="none"
   d="m 752.29675,887.90442 c 0.21529,-0.25362 0.21529,-0.25362 0,0 z"
   id="path137" />
<path
   fill="#000000"
   opacity="1"
   stroke="none"
   d="m 150.09915,780.30078 c 0.25326,0.2229 0.25326,0.2229 0,0 z"
   id="path138" />
<path
   fill="#000000"
   opacity="1"
   stroke="none"
   d="m 892.29755,759.08002 c 0.1264,-0.30446 0.1264,-0.30446 0,0 z"
   id="path139" />
<path
   fill="#000000"
   opacity="1"
   stroke="none"
   d="m 871.90118,202.69888 c -0.25336,-0.22288 -0.25336,-0.22288 0,0 z"
   id="path140" />
<path
   fill="#000000"
   opacity="1"
   stroke="none"
   d="m 910.90332,257.70306 c -0.25332,-0.21519 -0.25332,-0.21519 0,0 z"
   id="path141" />
<path
   fill="#000000"
   opacity="1"
   stroke="none"
   d="m 118.69044,252.9375 c -0.12225,0.30096 -0.12225,0.30096 0,0 z"
   id="path142" />
<path
   fill="#000000"
   opacity="1"
   stroke="none"
   d="m 905.90381,249.70291 c -0.25342,-0.21518 -0.25342,-0.21518 0,0 z"
   id="path143" />
<path
   fill="#000000"
   opacity="1"
   stroke="none"
   d="m 123.70413,244.92252 c -0.12661,0.30309 -0.12661,0.30309 0,0 z"
   id="path144" />
<path
   fill="#000000"
   opacity="1"
   stroke="none"
   d="m 125.704,241.92215 c -0.12658,0.30316 -0.12658,0.30316 0,0 z"
   id="path145" />
<path
   fill="#000000"
   opacity="1"
   stroke="none"
   d="m 127.70284,238.92026 c -0.12639,0.30423 -0.12639,0.30423 0,0 z"
   id="path146" />
<path
   fill="#000000"
   opacity="1"
   stroke="none"
   d="m 898.89948,238.69919 c -0.25271,-0.22265 -0.25271,-0.22265 0,0 z"
   id="path147" />
<path
   fill="#000000"
   opacity="1"
   stroke="none"
   d="m 129.70273,235.92017 c -0.12642,0.30436 -0.12642,0.30436 0,0 z"
   id="path148" />
<path
   fill="#000000"
   opacity="1"
   stroke="none"
   d="m 131.70297,232.92058 c -0.12647,0.30415 -0.12647,0.30415 0,0 z"
   id="path149" />
<path
   fill="#000000"
   opacity="1"
   stroke="none"
   d="m 136.70355,225.92151 c -0.12653,0.30363 -0.12653,0.30363 0,0 z"
   id="path150" />
<path
   fill="#000000"
   opacity="1"
   stroke="none"
   d="m 142.70361,217.92158 c -0.12652,0.30358 -0.12652,0.30358 0,0 z"
   id="path151" />
<path
   fill="#000000"
   opacity="1"
   stroke="none"
   d="m 879.90112,212.69916 c -0.25329,-0.22303 -0.25329,-0.22303 0,0 z"
   id="path152" />
<path
   fill="#000000"
   opacity="1"
   stroke="none"
   d="m 149.70392,208.92215 c -0.12658,0.30328 -0.12658,0.30328 0,0 z"
   id="path153" />
<path
   fill="#000000"
   opacity="1"
   stroke="none"
   d="m 875.90185,207.6989 c -0.25362,-0.22304 -0.25362,-0.22304 0,0 z"
   id="path154" />
<path
   fill="#000000"
   opacity="1"
   stroke="none"
   d="m 154.7034,202.92126 c -0.12648,0.30373 -0.12648,0.30373 0,0 z"
   id="path155" />
<path
   fill="#000000"
   opacity="1"
   stroke="none"
   d="m 250.69917,116.0992 c -0.223,0.25319 -0.223,0.25319 0,0 z"
   id="path156" />
<path
   fill="#000000"
   opacity="1"
   stroke="none"
   d="m 160.70299,195.92059 c -0.12645,0.30412 -0.12645,0.30412 0,0 z"
   id="path157" />
<path
   fill="#000000"
   opacity="1"
   stroke="none"
   d="m 858.90185,187.6991 c -0.25358,-0.22317 -0.25358,-0.22317 0,0 z"
   id="path158" />
<path
   fill="#000000"
   opacity="1"
   stroke="none"
   d="m 170.70592,184.92334 c -0.12693,0.30273 -0.12693,0.30273 0,0 z"
   id="path159" />
<path
   fill="#000000"
   opacity="1"
   stroke="none"
   d="m 194.69827,161.10205 c -0.22254,0.25205 -0.22254,0.25205 0,0 z"
   id="path160" />
<path
   fill="#000000"
   opacity="1"
   stroke="none"
   d="m 827.07965,155.70264 c -0.30418,-0.12644 -0.30418,-0.12644 0,0 z"
   id="path161" />
<path
   fill="#000000"
   opacity="1"
   stroke="none"
   d="m 818.07947,147.70288 c -0.3042,-0.12641 -0.3042,-0.12641 0,0 z"
   id="path162" />
<path
   fill="#000000"
   opacity="1"
   stroke="none"
   d="m 811.07922,141.70306 c -0.30404,-0.12641 -0.30404,-0.12641 0,0 z"
   id="path163" />
<path
   fill="#000000"
   opacity="1"
   stroke="none"
   d="m 218.69919,140.09819 c -0.22324,0.25358 -0.22324,0.25358 0,0 z"
   id="path164" />
<path
   fill="#000000"
   opacity="1"
   stroke="none"
   d="m 806.07892,137.70325 c -0.30389,-0.1265 -0.30389,-0.1265 0,0 z"
   id="path165" />
<path
   fill="#000000"
   opacity="1"
   stroke="none"
   d="m 228.69922,132.09781 c -0.22325,0.25373 -0.22325,0.25373 0,0 z"
   id="path166" />
<path
   fill="#000000"
   opacity="1"
   stroke="none"
   d="m 797.07922,130.70312 c -0.30397,-0.12638 -0.30397,-0.12638 0,0 z"
   id="path167" />
<path
   fill="#000000"
   opacity="1"
   stroke="none"
   d="m 233.69916,128.09831 c -0.22325,0.25354 -0.22325,0.25354 0,0 z"
   id="path168" />
<path
   fill="#000000"
   opacity="1"
   stroke="none"
   d="m 237.69917,125.09862 c -0.22313,0.2534 -0.22313,0.2534 0,0 z"
   id="path169" />
<path
   fill="#000000"
   opacity="1"
   stroke="none"
   d="m 786.07922,122.70313 c -0.30404,-0.12646 -0.30404,-0.12646 0,0 z"
   id="path170" />
<path
   fill="#000000"
   opacity="1"
   stroke="none"
   d="m 247.70303,118.09659 c -0.21516,0.25334 -0.21516,0.25334 0,0 z"
   id="path171" />
<path
   fill="#000000"
   opacity="1"
   stroke="none"
   d="m 271.70316,103.09561 c -0.21527,0.25363 -0.21527,0.25363 0,0 z"
   id="path172" />
<path
   fill="#000000"
   opacity="1"
   stroke="none"
   d="m 117.09641,733.29694 c 0.25344,0.21511 0.25344,0.21511 0,0 z"
   id="path173" />
<path
   fill="#000000"
   opacity="1"
   stroke="none"
   d="m 911.30884,730.06189 c 0.12239,-0.30058 0.12239,-0.30058 0,0 z"
   id="path174" />
<path
   fill="#000000"
   opacity="1"
   stroke="none"
   d="m 114.0971,728.29706 c 0.25319,0.21517 0.25319,0.21517 0,0 z"
   id="path175" />
<path
   fill="#000000"
   opacity="1"
   stroke="none"
   d="m 914.30981,725.06256 c 0.12219,-0.30113 0.12219,-0.30113 0,0 z"
   id="path176" />
<path
   fill="#000000"
   opacity="1"
   stroke="none"
   d="m 919.31091,716.06317 c 0.12189,-0.30147 0.12189,-0.30147 0,0 z"
   id="path177" />
<path
   fill="#000000"
   opacity="1"
   stroke="none"
   d="m 105.09616,712.29694 c 0.25344,0.21525 0.25344,0.21525 0,0 z"
   id="path178" />
<path
   fill="#000000"
   opacity="1"
   stroke="none"
   d="m 104.09991,710.3009 c 0.25286,0.22294 0.25286,0.22294 0,0 z"
   id="path179" />
<path
   fill="#000000"
   opacity="1"
   stroke="none"
   d="m 926.31012,703.06262 c 0.12209,-0.30117 0.12209,-0.30117 0,0 z"
   id="path180" />
<path
   fill="#000000"
   opacity="1"
   stroke="none"
   d="m 927.29724,701.07971 c 0.12644,-0.30432 0.12644,-0.30432 0,0 z"
   id="path181" />
<path
   fill="#000000"
   opacity="1"
   stroke="none"
   d="m 928.29742,699.07983 c 0.12636,-0.30438 0.12636,-0.30438 0,0 z"
   id="path182" />
<path
   fill="#000000"
   opacity="1"
   stroke="none"
   d="m 929.29706,697.07922 c 0.1264,-0.30395 0.1264,-0.30395 0,0 z"
   id="path183" />
<path
   fill="#000000"
   opacity="1"
   stroke="none"
   d="m 930.29675,695.07861 c 0.12647,-0.30369 0.12647,-0.30369 0,0 z"
   id="path184" />
<path
   fill="#000000"
   opacity="1"
   stroke="none"
   d="m 931.29675,693.07874 c 0.12651,-0.30379 0.12651,-0.30379 0,0 z"
   id="path185" />
<path
   fill="#000000"
   opacity="1"
   stroke="none"
   d="m 746.06219,97.691101 c -0.30068,-0.122309 -0.30068,-0.122309 0,0 z"
   id="path186" />
<path
   fill="#000000"
   opacity="1"
   stroke="none"
   d="m 753.06268,101.69016 c -0.30109,-0.12217 -0.30109,-0.12217 0,0 z"
   id="path187" />
<path
   fill="#000000"
   opacity="1"
   stroke="none"
   d="m 908.30926,735.06244 c 0.12225,-0.30084 0.12225,-0.30084 0,0 z"
   id="path188" />
<path
   fill="#000000"
   opacity="1"
   stroke="none"
   d="m 760.06281,105.68991 c -0.30115,-0.12208 -0.30115,-0.12208 0,0 z"
   id="path189" />
<path
   fill="#000000"
   opacity="1"
   stroke="none"
   d="m 765.06238,108.69039 c -0.30105,-0.12221 -0.30105,-0.12221 0,0 z"
   id="path190" />
<path
   fill="#000000"
   opacity="1"
   stroke="none"
   d="m 261.70306,109.09609 c -0.21533,0.25345 -0.21533,0.25345 0,0 z"
   id="path191" />
<path
   fill="#000000"
   opacity="1"
   stroke="none"
   d="m 928.90063,291.69928 c -0.25311,-0.22292 -0.25311,-0.22292 0,0 z"
   id="path192" />
<path
   fill="#000000"
   opacity="1"
   stroke="none"
   d="m 927.90051,289.69928 c -0.25305,-0.22292 -0.25305,-0.22292 0,0 z"
   id="path193" />
<path
   fill="#000000"
   opacity="1"
   stroke="none"
   d="m 926.90076,287.69928 c -0.25317,-0.22296 -0.25317,-0.22296 0,0 z"
   id="path194" />
<path
   fill="#000000"
   opacity="1"
   stroke="none"
   d="m 925.9032,285.70306 c -0.25326,-0.2151 -0.25326,-0.2151 0,0 z"
   id="path195" />
<path
   fill="#000000"
   opacity="1"
   stroke="none"
   d="m 253.69919,114.09952 c -0.22292,0.25306 -0.22292,0.25306 0,0 z"
   id="path196" />
<path
   fill="#000000"
   opacity="1"
   stroke="none"
   d="m 103.70326,278.92102 c -0.12649,0.30381 -0.12649,0.30381 0,0 z"
   id="path197" />
<path
   fill="#000000"
   opacity="1"
   stroke="none"
   d="m 104.69102,276.93793 c -0.12235,0.30075 -0.12235,0.30075 0,0 z"
   id="path198" />
<path
   fill="#000000"
   opacity="1"
   stroke="none"
   d="m 109.69055,267.93744 c -0.12223,0.30092 -0.12223,0.30092 0,0 z"
   id="path199" />
<path
   fill="#000000"
   opacity="1"
   stroke="none"
   d="m 915.90021,266.69922 c -0.25295,-0.22284 -0.25295,-0.22284 0,0 z"
   id="path200" />
<path
   fill="#000000"
   opacity="1"
   stroke="none"
   d="m 914.90283,264.703 c -0.25311,-0.21513 -0.25311,-0.21513 0,0 z"
   id="path201" />
<path
   fill="#000000"
   opacity="1"
   stroke="none"
   d="M 264.28955,912.32019 3421.2056,-4263.0736 Z M 707.9538,276.50857 614.98533,123.55995 Z"
   id="path202" />
<path
   fill="#e6403d"
   opacity="1"
   stroke="none"
   d="m 485.91458,735.80426 c -733789.92458,-41800.15626 276941.87542,-266793.55426 -2e-5,0 M 471.83801,448.94458 8110.9566,-920.0241 Z m 80.19165,38.42606 c 500376.69034,-519396.76064 -373874.42966,-8401.01954 0,0 z M 710.3197,352.21075 c 3513.7924,-513765.44075 -198132.7697,172668.28925 0,0 z m -195.17645,249.75763 80.85369,-27.86431 z m 143.38177,-41.05987 5.4105,-1.32176 z m -301.94833,-0.83661 4.43106,-0.69237 z M 745.59119,397.276 c -288070.92119,-530949.396 -105495.46119,289681.764 0,0 z"
   id="path203" />
<path
   fill="#b03938"
   opacity="1"
   stroke="none"
   d="m 486.18487,736.03827 c 0.0991,1.12637 0.0991,1.12637 0,0 z"
   id="path204" />
<path
   fill="#b03938"
   opacity="1"
   stroke="none"
   d="m 708.02747,276.74289 c -0.27604,-0.1185 -0.27604,-0.1185 0,0 z"
   id="path205" />
<path
   fill="#e7e6e6"
   opacity="1"
   stroke="none"
   d="m 471.87195,449.40579 c -232268.48195,-57909.69079 80681.97305,127310.50421 0,0 z m -58.35657,-28.65954 -13.85222,32.94558 z"
   id="path206" />
<path
   fill="#e7e7e7"
   opacity="1"
   stroke="none"
   d="m 551.87085,487.03503 0.79673,3.35526 z M 644.08453,463.41467 -2423.6535,-3652.3279 Z"
   id="path207" />
<path
   fill="#e8e7e7"
   opacity="1"
   stroke="none"
   d="m 710.16028,351.8811 c -0.36971,-0.0516 -0.36971,-0.0516 0,0 z"
   id="path208" />
<path
   fill="#0b0205"
   opacity="1"
   stroke="none"
   d="m 514.67804,601.98712 c -0.29864,0.0181 -0.29864,0.0181 0,0 z"
   id="path209" />
<path
   fill="#de8988"
   opacity="1"
   stroke="none"
   d="m 658.08154,560.90369 c -409491.31154,266183.40631 237018.26846,52959.86431 0,0 z"
   id="path210" />
<path
   fill="#de8988"
   opacity="1"
   stroke="none"
   d="m 356.10406,560.07092 c 190805.53594,-156530.46092 -12978.39806,152957.62908 0,0 z"
   id="path211" />
<path
   fill="#dd8988"
   opacity="1"
   stroke="none"
   d="M 745.71106,397.68231 58.504015,-7006.6332 Z m -6.30017,11.25858 -2222.59869,4798.79871 z"
   id="path212" />
<path
   fill="#090205"
   opacity="1"
   stroke="none"
   d="m 414.0076,420.74625 c -306934.2176,527432.09375 -97651.0076,-301684.81625 0,0 z m 26.51651,20.5271 c 251111.11589,-47790.72335 -131016.70411,-93006.18835 0,0 z m -39.73236,32.98056 -8.82416,-2.08367 z"
   id="path213" />
<path
   fill="#0a0306"
   opacity="1"
   stroke="none"
   d="M 644.07355,463.89661 8579.0886,667.55415 Z M 580.40979,456.02756 4051.0695,-6827.7351 Z m 35.56598,23.58044 -3.0702,-21.58057 z"
   id="path214" />
<path
   fill="#c4c2c2"
   opacity="1"
   stroke="none"
   d="m 739.00207,408.98914 c 0.0643,0.54643 0.0643,0.54643 0,0 z"
   id="path215" />
<path
   fill="#e4e4e4"
   opacity="1"
   stroke="none"
   d="m 440.70129,441.62219 c -26.79821,-29.79983 -26.79821,-29.79983 0,0 z"
   id="path216" />
<path
   fill="#e2e2e2"
   opacity="1"
   stroke="none"
   d="m 401.12106,474.48959 c -0.58244,-0.35969 -0.58244,-0.35969 0,0 z"
   id="path217" />
<path
   fill="#e5e5e5"
   opacity="1"
   stroke="none"
   d="m 580.16412,455.73798 c -0.56847,0.18477 -0.56847,0.18477 0,0 z"
   id="path218" />
<path
   fill="#e2e2e2"
   opacity="1"
   stroke="none"
   d="m 615.98157,479.18628 c 0.091,-0.16104 0.091,-0.16104 0,0 z"
   id="path219" />
</svg>
